<svg width="24" height="24" viewBox="0 0 24 24" fill="none" xmlns="http://www.w3.org/2000/svg">
<path d="M12.1357 1.25293C12.8155 1.28662 13.4608 1.57214 13.9443 2.05566C14.46 2.57138 14.75 3.27069 14.75 4V4.55762C17.5578 5.41053 19.7275 7.95715 19.7646 10.9912V14.7891C19.7647 15.5294 19.8632 16.1232 20.1729 16.5967L20.459 17.0342C21.2106 18.1789 20.4176 19.7499 19.0146 19.75H15.6738C15.5279 20.4649 15.175 21.1276 14.6514 21.6514C13.9482 22.3544 12.9944 22.7499 12 22.75C11.0055 22.75 10.0509 22.3546 9.34766 21.6514C8.82412 21.1277 8.47213 20.4649 8.32617 19.75H4.98438C3.58291 19.7498 2.78574 18.1793 3.54004 17.0332L3.82617 16.5967L3.93262 16.4141C4.15942 15.9736 4.23437 15.439 4.23438 14.79V10.9941C4.25592 7.95302 6.42971 5.38442 9.25 4.54199V4C9.25 3.27065 9.53994 2.57139 10.0557 2.05566C10.5714 1.53999 11.2707 1.25 12 1.25L12.1357 1.25293ZM9.87891 19.75C9.98968 20.0632 10.1689 20.3514 10.4082 20.5908C10.8302 21.0128 11.4033 21.25 12 21.25C12.5966 21.2499 13.1689 21.0127 13.5908 20.5908C13.8303 20.3513 14.0103 20.0634 14.1211 19.75H9.87891ZM10.9766 5.75684C8.13611 5.89468 5.75393 8.24503 5.73438 11.0049V14.79C5.73437 15.6285 5.63253 16.578 5.08105 17.4189H5.08008L4.79395 17.8564L4.79297 17.8584C4.67357 18.0401 4.81621 18.2497 4.98438 18.25H19.0146C19.1815 18.2498 19.3261 18.0405 19.2061 17.8574L19.2051 17.8564L18.918 17.4189C18.368 16.5785 18.2647 15.6283 18.2646 14.7891V11.001C18.2259 8.24463 15.8399 5.91069 12.9961 5.76074L12.7188 5.75293L11.2529 5.75L10.9766 5.75684ZM12 2.75C11.6685 2.75 11.3506 2.88184 11.1162 3.11621C10.8818 3.35063 10.75 3.66848 10.75 4V4.25H13.25V4C13.25 3.66852 13.1182 3.35062 12.8838 3.11621C12.6787 2.9111 12.4092 2.78427 12.123 2.75586L12 2.75Z" fill="black"/>
</svg>
