<svg width="24" height="24" viewBox="0 0 24 24" fill="none" xmlns="http://www.w3.org/2000/svg">
<path d="M12 0.75C14.9837 0.75 17.8453 1.93514 19.9551 4.04492C22.0649 6.15471 23.25 9.01631 23.25 12L23.2471 12.2793C23.1756 15.1618 21.9989 17.9112 19.9551 19.9551C17.8453 22.0649 14.9837 23.25 12 23.25C9.01631 23.25 6.15471 22.0649 4.04492 19.9551C1.93514 17.8453 0.75 14.9837 0.75 12C0.75 9.01631 1.93514 6.15471 4.04492 4.04492C6.15471 1.93514 9.01631 0.75 12 0.75ZM8.64941 16.25C8.86067 17.3196 9.15088 18.297 9.50781 19.1299C9.90449 20.0553 10.3527 20.73 10.7998 21.1621C11.2436 21.5908 11.6506 21.75 12 21.75C12.3495 21.75 12.7572 21.5912 13.2012 21.1621C13.6484 20.7299 14.0965 20.0554 14.4932 19.1299C14.8501 18.297 15.1393 17.3196 15.3506 16.25H8.64941ZM3.22656 16.25C3.69688 17.2211 4.32802 18.1171 5.10547 18.8945C6.19435 19.9834 7.51536 20.785 8.95117 21.2578C8.64912 20.8065 8.37336 20.291 8.12891 19.7207C7.69339 18.7045 7.35551 17.5236 7.12305 16.25H3.22656ZM16.877 16.25C16.6445 17.5236 16.3076 18.7045 15.8721 19.7207C15.6275 20.2913 15.3501 20.8063 15.0479 21.2578C16.484 20.7851 17.8054 19.9836 18.8945 18.8945C19.672 18.1171 20.3031 17.2211 20.7734 16.25H16.877ZM2.64746 9.25C2.38715 10.1354 2.25 11.0605 2.25 12C2.25 12.9395 2.38715 13.8646 2.64746 14.75H6.90332C6.80276 13.856 6.75 12.9323 6.75 12C6.75 11.0677 6.80276 10.144 6.90332 9.25H2.64746ZM8.41406 9.25C8.30773 10.1331 8.25 11.0576 8.25 12C8.25 12.9424 8.30773 13.8669 8.41406 14.75H15.5859C15.6923 13.8669 15.75 12.9424 15.75 12C15.75 11.0576 15.6923 10.1331 15.5859 9.25H8.41406ZM17.0967 9.25C17.1972 10.144 17.25 11.0677 17.25 12C17.25 12.9323 17.1972 13.856 17.0967 14.75H21.3525C21.6129 13.8646 21.75 12.9395 21.75 12L21.7471 11.7578C21.7258 10.9014 21.5895 10.0593 21.3516 9.25H17.0967ZM8.95117 2.74121C7.51525 3.21398 6.19443 4.01651 5.10547 5.10547C4.32802 5.88292 3.69688 6.77888 3.22656 7.75H7.12305C7.35549 6.47649 7.69344 5.29643 8.12891 4.28027C8.37355 3.70945 8.64883 3.19283 8.95117 2.74121ZM12 2.25C11.6505 2.25 11.2438 2.40979 10.7998 2.83887C10.3526 3.27111 9.90455 3.94542 9.50781 4.87109C9.15092 5.70389 8.86065 6.68053 8.64941 7.75H15.3506C15.1394 6.68068 14.85 5.70381 14.4932 4.87109C14.0966 3.94576 13.6482 3.27113 13.2012 2.83887C12.785 2.43668 12.4007 2.27108 12.0664 2.25195L12 2.25ZM15.0479 2.74121C15.3503 3.19293 15.6273 3.70926 15.8721 4.28027C16.3075 5.29635 16.6445 6.47664 16.877 7.75H20.7754C20.305 6.77859 19.6722 5.88312 18.8945 5.10547C17.8053 4.01629 16.4841 3.21394 15.0479 2.74121Z" fill="white"/>
</svg>
