<svg width="24" height="24" viewBox="0 0 24 24" fill="none" xmlns="http://www.w3.org/2000/svg">
<path d="M14.7575 11.1711H19.3277C20.6135 11.1711 21.246 10.5283 21.246 9.20272V4.71257C21.246 3.38657 20.6135 2.754 19.3277 2.754H14.7575C13.4816 2.754 12.8387 3.38657 12.8387 4.71257V9.20272C12.8387 10.5283 13.4816 11.1711 14.7575 11.1711ZM4.67231 11.1711H9.25288C10.5283 11.1711 11.1712 10.5283 11.1712 9.20272V4.71257C11.1712 3.38657 10.5283 2.754 9.25288 2.754H4.67231C3.39689 2.754 2.75403 3.38657 2.75403 4.71257V9.20272C2.75403 10.5283 3.39689 11.1711 4.67231 11.1711ZM4.69246 9.75514C4.34103 9.75514 4.17003 9.57429 4.17003 9.20229V4.713C4.17003 4.35129 4.34103 4.17043 4.69289 4.17043H9.22289C9.57431 4.17043 9.75517 4.35129 9.75517 4.713V9.20315C9.75517 9.57472 9.57431 9.75557 9.22289 9.75557L4.69246 9.75514ZM14.7772 9.75514C14.4257 9.75514 14.2552 9.57429 14.2552 9.20229V4.713C14.2552 4.35129 14.4257 4.17043 14.7772 4.17043H19.3175C19.6592 4.17043 19.83 4.35129 19.83 4.713V9.20315C19.83 9.57472 19.659 9.75557 19.3175 9.75557L14.7772 9.75514ZM6.0986 8.01729H7.81631C7.96717 8.01729 8.02717 7.95729 8.02717 7.78629V6.11914C8.02717 5.958 7.96717 5.898 7.81631 5.898H6.0986C5.94817 5.898 5.90789 5.958 5.90789 6.11872V7.78629C5.90789 7.95686 5.94817 8.01729 6.0986 8.01729ZM16.2437 8.01772H17.9516C18.102 8.01772 18.1625 7.95772 18.1625 7.78672V6.11957C18.1625 5.95843 18.1025 5.89843 17.9516 5.89843H16.2437C16.0933 5.89843 16.0432 5.95843 16.0432 6.11914V7.78672C16.0432 7.95729 16.0933 8.01772 16.2437 8.01772ZM4.67231 21.2469H9.25288C10.5283 21.2469 11.1712 20.6143 11.1712 19.2883V14.7883C11.1712 13.4726 10.5283 12.8297 9.25288 12.8297H4.67231C3.39689 12.8297 2.75403 13.4726 2.75403 14.7883V19.2883C2.75403 20.6143 3.39689 21.2469 4.67231 21.2469ZM13.5116 15.4311H15.2293C15.3802 15.4311 15.4402 15.3711 15.4402 15.1997V13.5326C15.4402 13.3719 15.3802 13.3119 15.2293 13.3119H13.5116C13.3612 13.3119 13.3209 13.3719 13.3209 13.5326V15.1997C13.3209 15.3711 13.3612 15.4311 13.5116 15.4311ZM18.8456 15.4311H20.5629C20.7137 15.4311 20.7742 15.3711 20.7742 15.1997V13.5326C20.7742 13.3719 20.7137 13.3119 20.5629 13.3119H18.8456C18.6947 13.3119 18.6442 13.3719 18.6442 13.5326V15.1997C18.6442 15.3711 18.6947 15.4311 18.8456 15.4311ZM4.69246 19.83C4.34103 19.83 4.17003 19.6491 4.17003 19.2874V14.7973C4.17003 14.4257 4.34103 14.2449 4.69289 14.2449H9.22289C9.57431 14.2449 9.75517 14.4257 9.75517 14.7977V19.2874C9.75517 19.6491 9.57431 19.83 9.22289 19.83H4.69246ZM6.0986 18.102H7.81631C7.96717 18.102 8.02717 18.042 8.02717 17.8611V16.2039C8.02717 16.0431 7.96717 15.9827 7.81631 15.9827H6.0986C5.94817 15.9827 5.90789 16.0427 5.90789 16.2039V17.8611C5.90789 18.042 5.94817 18.102 6.0986 18.102ZM16.2039 18.102H17.9212C18.072 18.102 18.132 18.042 18.132 17.8611V16.2039C18.132 16.0431 18.072 15.9827 17.9212 15.9827H16.2035C16.053 15.9827 16.0127 16.0427 16.0127 16.2039V17.8611C16.0127 18.042 16.053 18.102 16.2039 18.102ZM13.5116 20.7639H15.2293C15.3802 20.7639 15.4402 20.7039 15.4402 20.5329V18.8657C15.4402 18.7046 15.3802 18.6446 15.2293 18.6446H13.5116C13.3612 18.6446 13.3209 18.7046 13.3209 18.8657V20.5329C13.3209 20.7039 13.3612 20.7639 13.5116 20.7639ZM18.8456 20.7643H20.5629C20.7137 20.7643 20.7742 20.7043 20.7742 20.5333V18.8661C20.7742 18.705 20.7137 18.645 20.5629 18.645H18.8456C18.6947 18.645 18.6442 18.705 18.6442 18.8661V20.5333C18.6442 20.7043 18.6947 20.7643 18.8456 20.7643Z" fill="white"/>
</svg>
